<?xml version="1.0" encoding="utf-8"?>
<!-- Generator: Adobe Illustrator 19.0.0, SVG Export Plug-In . SVG Version: 6.00 Build 0)  -->
<svg version="1.1" id="Layer_1" xmlns="http://www.w3.org/2000/svg" xmlns:xlink="http://www.w3.org/1999/xlink" x="0px" y="0px"
	 viewBox="0 0 419.6 172.9" style="enable-background:new 0 0 419.6 172.9;" xml:space="preserve">
<style type="text/css">
	.st0{display:none;fill:#FFFFFF;stroke:#000000;stroke-width:12;stroke-miterlimit:10;}
	.st1{fill:none;}
	.st2{display:none;}
	.st3{font-family:'Arial-BoldMT';}
	.st4{font-size:72px;}
	.st5{fill:#163044;}
</style>
<path id="XMLID_2_" class="st0" d="M198.5,164.5h85.8c21,0,38-17,38-38s-17-38-38-38c-99.5,0-209.7,0-209.7,0l54.7-30.4"/>
<rect id="XMLID_3_" x="130.4" y="31.8" class="st1" width="222.7" height="60.4"/>
<text id="XMLID_1_" transform="matrix(1 0 0 1 130.4457 83.3396)" class="st2 st3 st4">back</text>
<g id="XMLID_45_">
	<path id="XMLID_15_" class="st5" d="M368.2,172.9v-19c17.9,0,32.4-14.5,32.4-32.4c0-17.9-14.5-32.4-32.4-32.4H0L96.3,42l8.4,17.1
		L82.1,70.1h286.1c28.3,0,51.4,23.1,51.4,51.4S396.5,172.9,368.2,172.9z"/>
</g>
<g id="XMLID_46_">
	<path id="XMLID_5_" class="st5" d="M131.3,70.2V0h13.4v25.3c4.1-4.7,9.1-7.1,14.7-7.1c6.2,0,11.3,2.2,15.4,6.7
		c4.1,4.5,6.1,10.9,6.1,19.3c0,8.7-2.1,15.4-6.2,20s-9.1,7-15,7c-2.9,0-5.8-0.7-8.6-2.2s-5.3-3.6-7.3-6.4v7.5H131.3z M144.6,43.6
		c0,5.3,0.8,9.2,2.5,11.7c2.3,3.6,5.4,5.4,9.3,5.4c3,0,5.5-1.3,7.6-3.8c2.1-2.5,3.1-6.5,3.1-12c0-5.8-1.1-10-3.2-12.6
		c-2.1-2.6-4.8-3.9-8.1-3.9c-3.2,0-5.9,1.3-8,3.8C145.7,34.7,144.6,38.5,144.6,43.6z"/>
	<path id="XMLID_8_" class="st5" d="M201.8,34.8l-12.2-2.2c1.4-4.9,3.7-8.5,7.1-10.9c3.3-2.4,8.3-3.5,14.9-3.5
		c6,0,10.5,0.7,13.4,2.1c2.9,1.4,5,3.2,6.2,5.4c1.2,2.2,1.8,6.2,1.8,12l-0.1,15.7c0,4.5,0.2,7.8,0.6,9.9c0.4,2.1,1.2,4.4,2.4,6.8
		h-13.3c-0.4-0.9-0.8-2.2-1.3-4c-0.2-0.8-0.4-1.3-0.5-1.6c-2.3,2.2-4.8,3.9-7.4,5c-2.6,1.1-5.4,1.7-8.4,1.7c-5.2,0-9.4-1.4-12.4-4.3
		c-3-2.8-4.5-6.4-4.5-10.8c0-2.9,0.7-5.4,2.1-7.7c1.4-2.2,3.3-4,5.8-5.2c2.5-1.2,6-2.2,10.7-3.1c6.3-1.2,10.6-2.3,13.1-3.3v-1.3
		c0-2.6-0.6-4.4-1.9-5.5c-1.3-1.1-3.7-1.7-7.2-1.7c-2.4,0-4.3,0.5-5.6,1.4C203.7,30.8,202.6,32.5,201.8,34.8z M219.8,45.7
		c-1.7,0.6-4.5,1.3-8.2,2.1c-3.7,0.8-6.2,1.6-7.3,2.3c-1.8,1.2-2.6,2.8-2.6,4.7c0,1.9,0.7,3.5,2.1,4.9c1.4,1.4,3.2,2.1,5.4,2.1
		c2.4,0,4.7-0.8,6.9-2.4c1.6-1.2,2.7-2.7,3.2-4.5c0.4-1.1,0.5-3.3,0.5-6.6V45.7z"/>
	<path id="XMLID_11_" class="st5" d="M290.5,34.4l-13.3,2.4c-0.4-2.6-1.5-4.6-3-6c-1.6-1.3-3.6-2-6.1-2c-3.3,0-6,1.2-8,3.5
		c-2,2.3-3,6.2-3,11.6c0,6,1,10.3,3,12.8c2,2.5,4.7,3.7,8.2,3.7c2.6,0,4.6-0.7,6.3-2.2c1.6-1.5,2.8-3.9,3.4-7.5l13.2,2.2
		c-1.4,6.1-4,10.6-7.9,13.7c-3.9,3.1-9.1,4.6-15.6,4.6c-7.4,0-13.4-2.3-17.8-7c-4.4-4.7-6.6-11.2-6.6-19.5c0-8.4,2.2-14.9,6.7-19.6
		c4.4-4.7,10.4-7,18-7c6.2,0,11.1,1.3,14.8,4C286.3,24.8,288.9,28.9,290.5,34.4z"/>
	<path id="XMLID_13_" class="st5" d="M300.2,70.2V0h13.4v37.2l15.7-17.9H346l-17.4,18.6l18.6,32.3h-14.5L320,47.3l-6.3,6.6v16.3
		H300.2z"/>
</g>
</svg>
