<?xml version="1.0" encoding="utf-8"?>
<!-- Generator: Adobe Illustrator 19.0.0, SVG Export Plug-In . SVG Version: 6.00 Build 0)  -->
<svg version="1.1" id="Layer_1" xmlns="http://www.w3.org/2000/svg" xmlns:xlink="http://www.w3.org/1999/xlink" x="0px" y="0px"
	 viewBox="-295 195.5 367.5 170.5" style="enable-background:new -295 195.5 367.5 170.5;" xml:space="preserve">
<style type="text/css">
	.st0{fill:#356873;}
</style>
<g id="XMLID_28_">
	<path id="XMLID_2_" class="st0" d="M18.9,366v-8c25.1,0,45.6-20.4,45.6-45.6c0-25.2-20.5-45.5-45.6-45.5H-295l96.2-43.1l3.3,7.3
		l-62.1,27.8H18.9c29.5,0,53.6,24,53.6,53.6C72.5,342,48.4,366,18.9,366z"/>
</g>
<g id="XMLID_30_">
	<path id="XMLID_32_" class="st0" d="M-167.5,259.4c0.2-3,0.4-7.4,0.4-11.3v-52.6h7.8v27.4h0.2c2.8-4.9,7.8-8,14.8-8
		c10.8,0,18.4,9,18.4,22.2c0,15.6-9.8,23.3-19.5,23.3c-6.3,0-11.3-2.4-14.6-8.2h-0.3l-0.4,7.2C-160.7,259.4-167.5,259.4-167.5,259.4
		z M-159.3,241.9c0,1,0.2,2,0.4,2.9c1.5,5.5,6.1,9.3,11.9,9.3c8.3,0,13.2-6.8,13.2-16.7c0-8.7-4.5-16.2-13-16.2
		c-5.4,0-10.4,3.7-12.1,9.7c-0.2,0.9-0.5,2-0.5,3.2v7.8H-159.3z"/>
	<path id="XMLID_35_" class="st0" d="M-91.8,259.4l-0.6-5.5h-0.3c-2.4,3.4-7.1,6.5-13.3,6.5c-8.8,0-13.3-6.2-13.3-12.5
		c0-10.5,9.4-16.3,26.2-16.2v-0.9c0-3.6-1-10.1-9.9-10.1c-4,0-8.3,1.3-11.3,3.2l-1.8-5.2c3.6-2.3,8.8-3.9,14.3-3.9
		c13.3,0,16.6,9.1,16.6,17.8v16.3c0,3.8,0.2,7.5,0.7,10.4h-7.3V259.4z M-93,237.2c-8.6-0.2-18.4,1.4-18.4,9.8c0,5.1,3.4,7.6,7.5,7.6
		c5.7,0,9.3-3.6,10.5-7.3c0.3-0.8,0.5-1.7,0.5-2.5v-7.6H-93z"/>
	<path id="XMLID_38_" class="st0" d="M-41.5,257.8c-2.1,1.1-6.7,2.5-12.5,2.5c-13.1,0-21.7-8.9-21.7-22.2c0-13.4,9.2-23.1,23.4-23.1
		c4.7,0,8.8,1.2,11,2.3l-1.8,6.1c-1.9-1.1-4.9-2.1-9.2-2.1c-10,0-15.4,7.4-15.4,16.5c0,10.1,6.5,16.3,15.1,16.3
		c4.5,0,7.5-1.2,9.7-2.2L-41.5,257.8z"/>
	<path id="XMLID_40_" class="st0" d="M-24.4,235.8h0.2c1.1-1.5,2.6-3.4,3.9-5l12.8-15H2l-16.8,17.9l19.2,25.6h-9.6l-15-20.9l-4,4.5
		v16.4H-32v-63.8h7.8v40.3H-24.4z"/>
</g>
</svg>
