<?xml version="1.0" encoding="utf-8"?>
<!-- Generator: Adobe Illustrator 19.0.0, SVG Export Plug-In . SVG Version: 6.00 Build 0)  -->
<svg version="1.1" id="Layer_1" xmlns="http://www.w3.org/2000/svg" xmlns:xlink="http://www.w3.org/1999/xlink" x="0px" y="0px"
	 viewBox="-436 244.1 86.5 73.9" style="enable-background:new -436 244.1 86.5 73.9;" xml:space="preserve">
<style type="text/css">
	.st0{fill:#356874;}
</style>
<g id="XMLID_2_">
	<path id="XMLID_3_" class="st0" d="M-350.9,267.5c0.8,1.4,1.1,2.9,1.1,4.7c0,1.9-0.4,3.6-1.2,5.2c-0.8,1.6-1.9,3-3.2,4.1
		c-1.4,1.1-2.9,2-4.7,2.7c-1.8,0.6-3.7,0.9-5.6,0.9c-0.1,0-0.3,0-0.4,0l0,0H-387l0,0h-2.7v28.7c0,0.6-0.1,1.1-0.3,1.6
		s-0.5,0.9-0.9,1.3c-0.4,0.4-0.8,0.7-1.3,0.9c-0.5,0.2-1,0.3-1.6,0.3c-0.6,0-1.1-0.1-1.6-0.3c-0.5-0.2-0.9-0.5-1.3-0.9
		c-0.4-0.4-0.7-0.8-0.9-1.3c-0.2-0.5-0.3-1-0.3-1.6v-28.7h-1.1h-6h-2.3c-0.6,0-1.1-0.1-1.6-0.3c-0.5-0.2-0.9-0.5-1.3-0.9
		c-0.4-0.4-0.7-0.8-0.9-1.3c-0.2-0.5-0.3-1-0.3-1.6v-20.5c0-1.1-0.2-2.1-0.6-3.1s-1-1.9-1.7-2.6c-0.7-0.8-1.6-1.4-2.6-1.8
		c-1-0.4-2.1-0.7-3.2-0.7l0,0c-1.2,0-2.2,0.2-3.2,0.7c-1,0.4-1.9,1.1-2.6,1.8c-0.7,0.8-1.3,1.6-1.7,2.6s-0.6,2-0.6,3.1V281
		c0,0.6-0.1,1.1-0.3,1.6c-0.1,0.2-0.1,0.3-0.2,0.5c-0.2,0.3-0.4,0.6-0.7,0.9c-0.4,0.4-0.8,0.7-1.3,0.9c-0.5,0.2-1,0.3-1.6,0.3l0,0
		c-0.5,0-1-0.1-1.5-0.3c-0.5-0.2-0.9-0.5-1.3-0.8c-0.4-0.4-0.7-0.8-0.9-1.3c-0.5-0.6-0.6-1.2-0.6-1.8v-20.5c0-2.6,0.5-4.8,1.5-6.9
		c1-2,2.2-3.8,3.8-5.2c1.5-1.3,3.3-2.4,5.2-3.2c2-0.7,3.9-1.1,5.8-1.1l0,0c1.9,0,3.9,0.4,5.8,1.1c1.9,0.7,3.7,1.8,5.3,3.3
		c1.6,1.4,2.8,3.1,3.8,5.2c1,2,1.5,4.3,1.5,6.9v16.3h4.3h1.1v-4.1c0-0.1,0-0.3,0-0.4c0-0.7,0.1-1.4,0.2-2c0.1-0.7,0.3-1.3,0.5-1.9
		c0.2-0.5,0.4-1,0.7-1.4c0.2-0.3,0.4-0.7,0.6-1l0.1-0.1c0.5-0.6,1.1-1.3,1.7-1.9c0.7-0.7,1.5-1.2,2.3-1.8c0.9-0.5,1.8-0.9,2.9-1.2
		c1-0.3,2.2-0.5,3.4-0.5c0.5,0,1,0.1,1.6,0.3c0.5,0.2,0.9,0.5,1.3,0.9c0.4,0.4,0.6,0.8,0.9,1.3c0.2,0.5,0.3,1,0.3,1.6
		s-0.1,1.1-0.3,1.6c-0.2,0.5-0.5,0.9-0.9,1.3s-0.8,0.7-1.3,0.9c-0.5,0.2-1,0.3-1.6,0.3s-1.2,0.1-1.7,0.4c-0.3,0.1-0.5,0.3-0.8,0.4
		c-0.1,0.1-0.3,0.2-0.4,0.3l-0.1,0.1c-0.4,0.4-0.7,0.8-0.8,1.3c-0.1,0.4-0.2,0.7-0.3,1.1c0,0.1,0,0.3,0,0.4v4.1h10.9h11.9l0,0h3.8
		l0,0l0,0c0.4-0.1,0.7-0.1,1-0.3c0.8-0.3,1.5-0.6,2.2-1c0.6-0.4,1.1-0.9,1.4-1.5c0.3-0.6,0.5-1.2,0.5-1.8c0-0.9-0.6-1.8-1.7-2.4
		c-1.1-0.7-2.7-1.1-4.8-1.2c-2.1-0.1-4.1-0.5-5.8-1.2c-1.8-0.6-3.3-1.5-4.6-2.5c-1.3-1-2.3-2.3-3-3.7c-0.7-1.4-1-3-1-4.7
		c0-1.6,0.3-3.2,1-4.7c0.7-1.5,1.7-2.8,3-4c1.3-1.2,2.9-2.1,4.8-2.8s4-1,6.4-1c0.9,0,1.9,0.1,3,0.2c1.2,0.2,2.4,0.4,3.6,0.8
		s2.3,0.9,3.5,1.5c1.1,0.7,2.1,1.5,3,2.6c0.6,0.8,0.9,1.6,0.9,2.4c0,0.6-0.1,1.1-0.3,1.6c-0.2,0.5-0.5,1-0.9,1.3
		c-0.4,0.4-0.8,0.7-1.3,0.9s-1,0.3-1.6,0.3c-1.3,0-2.4-0.5-3.2-1.5c-0.3-0.4-0.7-0.7-1.3-1c-0.6-0.3-1.2-0.5-1.9-0.7
		c-0.7-0.2-1.3-0.3-2-0.3c-0.7-0.1-1.3-0.1-1.9-0.1c-1.1,0-2.1,0.2-2.9,0.4c-0.8,0.2-1.5,0.6-2.1,0.9c-0.6,0.4-1,0.8-1.2,1.3
		c-0.3,0.5-0.4,1-0.4,1.5s0.2,1,0.5,1.5s0.8,0.9,1.4,1.3c0.6,0.4,1.3,0.6,2.1,0.9c0.8,0.2,1.7,0.3,2.7,0.4c1.9,0.1,3.7,0.5,5.4,1
		c1.7,0.6,3.2,1.3,4.5,2.3C-352.6,264.9-351.6,266.1-350.9,267.5z"/>
</g>
</svg>
